<svg xmlns="http://www.w3.org/2000/svg" width="64" height="64"><path style="text-indent:0;text-align:start;line-height:normal;text-transform:none;block-progression:tb;marker:none;-inkscape-font-specification:Sans" d="M16-.031C7.227-.031.031 7.097.031 16c0 8.903 7.196 16.031 15.969 16.031S31.969 24.903 31.969 16C31.969 7.097 24.773-.031 16-.031zm0 1.062c8.347 0 15.031 6.751 15.031 14.969S24.347 30.969 16 30.969C7.653 30.969.969 24.218.969 16S7.653 1.031 16 1.031zm-.094 8.625c-2.166 0-4.323.584-5.906 1.75-1.417 1-2.406 2.5-2.656 4.5h17.312c-.25-1.916-1.333-3.416-2.75-4.5-1.666-1.166-3.833-1.75-6-1.75zm-8.75 6.938C6.49 16.844 6 17.417 6 18.25c0 .667.417 1.344 1 1.594H24.906c.584-.25 1.094-.927 1.094-1.594 0-.75-.5-1.427-1.25-1.594H7.344c0-.083-.104-.062-.188-.062zm4.938.75c.583 0 .896.312 1.062.562.084.084.104.167.188.25 0 0-.021.094.062.094.084 0 .104-.01.188-.094 0 0 .073-.083.156-.25.083-.083.177-.24.344-.406.166-.083.416-.156.75-.156.583 0 .906.25 1.156.5.083.083.156.25.156.25h.094l.25-.25c.25-.25.594-.5 1.094-.5.583 0 .833.312 1 .562.083.084.156.167.156.25.083.084.073.094.156.094.084 0 .188-.01.188-.094 0 0 .073-.083.156-.25.083-.083.177-.229.344-.312.166-.084.312-.188.562-.188.5 0 .834.344 1 .594l.188.156c.083.084.073.094.156.094s.073-.01.156-.094l.188-.156c.166-.167.406-.51.906-.594h.094c.416 0 .812.271 1.062.438.25.25.438.562.438.562.083.167-.021.438-.188.438-.166 0-.406-.021-.406-.188 0 0-.083-.146-.25-.312-.167-.167-.323-.334-.656-.25-.334.083-.417.146-.5.312-.084.084-.167.26-.25.344a1.247 1.247 0 0 1-.594.156.779.779 0 0 1-.594-.25c-.166-.083-.25-.229-.25-.312-.083-.167-.156-.25-.406-.25-.167 0-.25-.021-.25.062-.083 0-.073.104-.156.188-.084.083-.167.229-.25.312-.167.084-.344.25-.594.25s-.427-.073-.594-.156c-.166-.083-.229-.26-.312-.344-.167-.166-.167-.25-.5-.25-.334 0-.427.084-.594.25a1.22 1.22 0 0 0-.25.344c-.083.083-.25.25-.5.25s-.417-.167-.5-.25c-.083-.083-.167-.26-.25-.344-.083-.166-.26-.25-.594-.25-.25 0-.312.094-.312.094l-.188.156c-.083.084-.083.26-.25.344-.083.083-.312.25-.562.25a.779.779 0 0 1-.594-.25c-.167-.083-.167-.26-.25-.344-.083-.166-.177-.25-.594-.25-.166 0-.229.01-.312.094-.084 0-.104.073-.188.156-.083.084-.083.26-.25.344-.083.083-.312.25-.562.25a.779.779 0 0 1-.594-.25c-.167-.083-.26-.26-.344-.344-.166-.166-.166-.25-.5-.25-.583 0-.906.594-.906.594-.083.167-.333.24-.5.156-.333-.083-.333-.333-.25-.5 0 0 .51-1 1.594-1 .5 0 .833.344 1 .594l.156.156c.083.084.073.094.156.094.084 0 .094-.01.094-.094 0 0 .073-.083.156-.25.084-.083.188-.24.438-.406.166-.083.416-.156.75-.156zm-5 3.062c0 .334.083.604.25.938.333.583.812 1 1.562 1h14.438c.5 0 .906-.344 1.156-.844.167-.25.25-.677.25-1.094H7.094z" color="#000" font-family="Sans" font-weight="400" overflow="visible"/></svg>