<svg xmlns="http://www.w3.org/2000/svg" width="28" height="22"><path fill-rule="evenodd" d="M25.99 13.578c.153-.262.26-.547.257-.855 0-.303-.107-.574-.254-.818.24-.119.471-.254.664-.447a2.44 2.44 0 0 0 .717-1.73c0-.533-.209-1-.5-1.404a.562.562 0 0 0 .201-.779C24.196 2.822 19.195 0 13.686 0 8.18 0 3.174 2.822.297 7.545a.56.56 0 0 0-.008.568c.051.09.12.162.205.211-.295.412-.496.887-.494 1.404 0 .963.57 1.777 1.381 2.178-.15.254-.258.533-.258.85.004.307.113.578.258.824-.238.119-.473.252-.666.447A2.434 2.434 0 0 0 0 15.759c0 .518.197.971.471 1.367-.258.049-.465.246-.47.518a3.854 3.854 0 0 0 3.804 3.889h19.727c2.094 0 3.816-1.705 3.842-3.883 0-.275-.213-.475-.473-.523.281-.406.473-.863.473-1.367 0-.965-.572-1.781-1.385-2.182zm-.13 3.117a1.31 1.31 0 0 1-.94.391h-5.724l3.312-2.656h2.41a1.33 1.33 0 0 1 .942 2.265zm-.738-3.964a.566.566 0 0 1-.166.406.55.55 0 0 1-.39.168h-2.255a.567.567 0 0 0-.35.123l-3.42 2.74-3.438-2.74a.565.565 0 0 0-.352-.123H2.817a.572.572 0 0 1-.568-.557c0-.316.25-.572.557-.572h21.688c.335.035.628.225.628.555zM13.687 1.123c4.768 0 9.135 2.281 11.865 6.15H1.822a14.437 14.437 0 0 1 11.865-6.15zM1.513 8.787c.25-.25.584-.389.94-.389h22.476a1.325 1.325 0 0 1 .931 2.264c-.248.25-.58.389-.932.389H2.444a1.324 1.324 0 0 1-1.318-1.324c0-.356.137-.688.387-.94zm0 6.034c.25-.252.584-.391.94-.391h12.103l3.332 2.656H2.452a1.33 1.33 0 0 1-.939-2.265zm22.02 5.585H3.81a2.729 2.729 0 0 1-2.635-2.195h25.02a2.727 2.727 0 0 1-2.664 2.195z"/></svg>